<svg width="500" height="500" viewBox="0 0 500 500" fill="none" xmlns="http://www.w3.org/2000/svg">
<g clip-path="url(#clip0_141_243)">
<path d="M250 249.999C274.723 249.999 298.89 242.668 319.446 228.932C340.002 215.197 356.024 195.675 365.485 172.834C374.946 149.993 377.421 124.86 372.598 100.612C367.775 76.3648 355.87 54.0919 338.388 36.6103C320.907 19.1288 298.634 7.22368 274.386 2.40052C250.139 -2.42263 225.005 0.0527875 202.165 9.51374C179.324 18.9747 159.801 34.9963 146.066 55.5524C132.331 76.1085 125 100.276 125 124.999C125.033 158.141 138.213 189.916 161.648 213.35C185.083 236.785 216.858 249.966 250 249.999ZM250 41.6653C266.482 41.6653 282.593 46.5528 296.298 55.7096C310.002 64.8663 320.683 77.8812 326.99 93.1084C333.297 108.336 334.948 125.091 331.732 141.256C328.517 157.421 320.58 172.27 308.926 183.924C297.271 195.579 282.423 203.515 266.258 206.731C250.092 209.946 233.337 208.296 218.11 201.989C202.883 195.681 189.868 185 180.711 171.296C171.554 157.592 166.667 141.48 166.667 124.999C166.667 102.897 175.446 81.7012 191.074 66.0731C206.702 50.4451 227.899 41.6653 250 41.6653V41.6653Z" fill="#1A2F4E"/>
<path d="M250 291.679C200.289 291.735 152.629 311.507 117.478 346.658C82.327 381.809 62.5549 429.468 62.4998 479.179C62.4998 484.705 64.6947 490.004 68.6017 493.911C72.5087 497.818 77.8077 500.013 83.3331 500.013C88.8584 500.013 94.1575 497.818 98.0645 493.911C101.971 490.004 104.166 484.705 104.166 479.179C104.166 440.502 119.531 403.409 146.88 376.06C174.229 348.711 211.322 333.346 250 333.346C288.677 333.346 325.77 348.711 353.119 376.06C380.469 403.409 395.833 440.502 395.833 479.179C395.833 484.705 398.028 490.004 401.935 493.911C405.842 497.818 411.141 500.013 416.666 500.013C422.192 500.013 427.491 497.818 431.398 493.911C435.305 490.004 437.5 484.705 437.5 479.179C437.445 429.468 417.673 381.809 382.521 346.658C347.37 311.507 299.711 291.735 250 291.679V291.679Z" fill="#1A2F4E"/>
</g>
<defs>
<clipPath id="clip0_141_243">
<rect width="500" height="500" fill="white"/>
</clipPath>
</defs>
</svg>
