<svg width="100" height="100" viewBox="0 0 100 100" fill="none" xmlns="http://www.w3.org/2000/svg">
<g clip-path="url(#clip0_133_184)">
<path d="M96.962 39.2453C90.4995 28.7203 75.7995 11.062 49.9995 11.062C24.1995 11.062 9.49951 28.7203 3.03701 39.2453C1.03921 42.4766 -0.0190125 46.2005 -0.0190125 49.9995C-0.0190125 53.7984 1.03921 57.5223 3.03701 60.7536C9.49951 71.2786 24.1995 88.937 49.9995 88.937C75.7995 88.937 90.4995 71.2786 96.962 60.7536C98.9598 57.5223 100.018 53.7984 100.018 49.9995C100.018 46.2005 98.9598 42.4766 96.962 39.2453V39.2453ZM89.8578 56.3911C84.3078 65.4161 71.7453 80.6036 49.9995 80.6036C28.2537 80.6036 15.6912 65.4161 10.1412 56.3911C8.95424 54.4705 8.32556 52.2573 8.32556 49.9995C8.32556 47.7416 8.95424 45.5284 10.1412 43.6078C15.6912 34.5828 28.2537 19.3953 49.9995 19.3953C71.7453 19.3953 84.3078 34.5661 89.8578 43.6078C91.0448 45.5284 91.6735 47.7416 91.6735 49.9995C91.6735 52.2573 91.0448 54.4705 89.8578 56.3911V56.3911Z" fill="#375685"/>
<path d="M49.9992 29.166C45.8787 29.166 41.8508 30.3879 38.4248 32.6771C34.9988 34.9663 32.3285 38.22 30.7517 42.0268C29.1749 45.8336 28.7623 50.0225 29.5661 54.0637C30.37 58.105 32.3542 61.8171 35.2678 64.7307C38.1814 67.6443 41.8935 69.6285 45.9348 70.4324C49.9761 71.2362 54.165 70.8237 57.9717 69.2468C61.7785 67.67 65.0323 64.9998 67.3215 61.5737C69.6107 58.1477 70.8325 54.1198 70.8325 49.9993C70.8259 44.476 68.6288 39.1808 64.7233 35.2753C60.8177 31.3697 55.5225 29.1726 49.9992 29.166V29.166ZM49.9992 62.4993C47.5269 62.4993 45.1102 61.7662 43.0545 60.3927C40.9989 59.0192 39.3968 57.067 38.4507 54.7829C37.5046 52.4988 37.257 49.9855 37.7394 47.5607C38.2217 45.136 39.4122 42.9087 41.1603 41.1605C42.9085 39.4124 45.1358 38.2218 47.5605 37.7395C49.9853 37.2572 52.4986 37.5048 54.7827 38.4509C57.0668 39.3969 59.019 40.9991 60.3925 43.0547C61.7661 45.1103 62.4992 47.5271 62.4992 49.9993C62.4992 53.3146 61.1822 56.494 58.838 58.8382C56.4938 61.1824 53.3144 62.4993 49.9992 62.4993Z" fill="#375685"/>
</g>
<defs>
<clipPath id="clip0_133_184">
<rect width="100" height="100" fill="white"/>
</clipPath>
</defs>
</svg>
