<svg width="3383" height="1000" viewBox="0 0 3383 1000" fill="none" xmlns="http://www.w3.org/2000/svg">
<path d="M2180.13 327.699H2269.74L2364.38 558.596H2368.41L2463.05 327.699H2552.66V671.359H2482.18V447.678H2479.33L2390.39 669.681H2342.4L2253.46 446.839H2250.61V671.359H2180.13V327.699Z" fill="#A9C1E4"/>
<path d="M2685.18 327.699V671.359H2612.52V327.699H2685.18Z" fill="#A9C1E4"/>
<path d="M3032.4 327.699V671.359H2969.65L2820.13 455.061H2817.62V671.359H2744.96V327.699H2808.72L2957.06 543.829H2960.08V327.699H3032.4Z" fill="#A9C1E4"/>
<path d="M3214.26 671.359H3092.44V327.699H3215.27C3249.83 327.699 3279.59 334.579 3304.54 348.339C3329.48 361.987 3348.67 381.62 3362.09 407.237C3375.63 432.855 3382.4 463.507 3382.4 499.193C3382.4 534.991 3375.63 565.755 3362.09 591.485C3348.67 617.215 3329.37 636.96 3304.2 650.719C3279.14 664.479 3249.16 671.359 3214.26 671.359ZM3165.09 609.104H3211.24C3232.72 609.104 3250.79 605.301 3265.44 597.694C3280.21 589.975 3291.28 578.061 3298.67 561.952C3306.16 545.731 3309.91 524.811 3309.91 499.193C3309.91 473.799 3306.16 453.048 3298.67 436.939C3291.28 420.829 3280.26 408.971 3265.61 401.364C3250.95 393.757 3232.89 389.954 3211.41 389.954H3165.09V609.104Z" fill="#A9C1E4"/>
<path d="M1160.26 448.013H1086.76C1085.42 438.504 1082.68 430.058 1078.54 422.675C1074.4 415.18 1069.09 408.803 1062.6 403.545C1056.11 398.288 1048.62 394.26 1040.11 391.464C1031.72 388.667 1022.61 387.269 1012.76 387.269C994.975 387.269 979.481 391.687 966.281 400.525C953.08 409.251 942.844 422.004 935.573 438.784C928.301 455.452 924.665 475.701 924.665 499.529C924.665 524.028 928.301 544.612 935.573 561.28C942.956 577.949 953.248 590.534 966.448 599.036C979.649 607.538 994.919 611.789 1012.26 611.789C1021.99 611.789 1031 610.502 1039.27 607.929C1047.66 605.356 1055.1 601.609 1061.59 596.687C1068.08 591.652 1073.45 585.556 1077.7 578.396C1082.06 571.236 1085.09 563.07 1086.76 553.897L1160.26 554.232C1158.36 570.006 1153.6 585.22 1146 599.875C1138.5 614.418 1128.38 627.45 1115.63 638.973C1102.98 650.383 1087.88 659.445 1070.32 666.157C1052.87 672.757 1033.12 676.057 1011.08 676.057C980.432 676.057 953.024 669.121 928.861 655.25C904.809 641.378 885.791 621.298 871.808 595.008C857.936 568.719 851 536.893 851 499.529C851 462.053 858.048 430.17 872.143 403.881C886.239 377.592 905.368 357.567 929.532 343.808C953.695 329.936 980.879 323 1011.08 323C1031 323 1049.45 325.797 1066.46 331.39C1083.57 336.984 1098.73 345.15 1111.93 355.889C1125.13 366.517 1135.87 379.55 1144.15 394.987C1152.54 410.425 1157.91 428.101 1160.26 448.013Z" fill="#1A2F4E"/>
<path d="M1265.14 671.359H1187.28L1305.91 327.698H1399.55L1518.02 671.359H1440.16L1354.07 406.23H1351.39L1265.14 671.359ZM1260.27 536.277H1444.18V592.995H1260.27V536.277Z" fill="#1A2F4E"/>
<path d="M1737.96 426.534C1736.62 412.998 1730.86 402.483 1720.68 394.987C1710.5 387.492 1696.68 383.745 1679.23 383.745C1667.37 383.745 1657.36 385.423 1649.2 388.779C1641.03 392.023 1634.77 396.554 1630.4 402.371C1626.15 408.188 1624.03 414.788 1624.03 422.172C1623.8 428.324 1625.09 433.694 1627.89 438.281C1630.79 442.867 1634.77 446.839 1639.8 450.195C1644.83 453.439 1650.65 456.291 1657.25 458.753C1663.85 461.102 1670.9 463.115 1678.39 464.793L1709.27 472.177C1724.26 475.533 1738.02 480.008 1750.55 485.601C1763.08 491.194 1773.93 498.074 1783.1 506.241C1792.28 514.407 1799.38 524.028 1804.41 535.103C1809.56 546.178 1812.19 558.875 1812.3 573.194C1812.19 594.225 1806.82 612.46 1796.19 627.898C1785.68 643.224 1770.46 655.138 1750.55 663.64C1730.75 672.03 1706.86 676.225 1678.9 676.225C1651.15 676.225 1626.99 671.974 1606.41 663.472C1585.93 654.97 1569.94 642.385 1558.41 625.716C1547 608.936 1541.02 588.184 1540.46 563.462H1610.77C1611.55 574.984 1614.85 584.605 1620.67 592.324C1626.6 599.931 1634.49 605.692 1644.33 609.607C1654.29 613.411 1665.53 615.313 1678.06 615.313C1690.36 615.313 1701.05 613.523 1710.11 609.943C1719.28 606.363 1726.39 601.385 1731.42 595.008C1736.45 588.632 1738.97 581.305 1738.97 573.026C1738.97 565.307 1736.68 558.819 1732.09 553.561C1727.62 548.303 1721.02 543.829 1712.29 540.137C1703.68 536.445 1693.1 533.089 1680.58 530.069L1643.16 520.672C1614.18 513.624 1591.3 502.605 1574.52 487.615C1557.74 472.624 1549.41 452.432 1549.52 427.038C1549.41 406.23 1554.95 388.052 1566.13 372.502C1577.43 356.952 1592.93 344.814 1612.62 336.089C1632.3 327.363 1654.68 323 1679.74 323C1705.24 323 1727.5 327.363 1746.52 336.089C1765.65 344.814 1780.53 356.952 1791.16 372.502C1801.79 388.052 1807.27 406.062 1807.6 426.534H1737.96Z" fill="#1A2F4E"/>
<path d="M1861.17 671.359V327.698H1933.83V469.492H2081.33V327.698H2153.82V671.359H2081.33V529.398H1933.83V671.359H1861.17Z" fill="#1A2F4E"/>
<path d="M780.209 414.259H612.311C613.218 394.724 611.518 377.318 607.213 362.041C602.908 346.513 596.111 333.239 586.821 322.219C577.531 310.949 565.975 302.434 552.153 296.673C538.332 290.913 522.244 288.033 503.891 288.033C468.771 288.033 436.936 297.675 408.386 316.96C379.837 336.244 355.932 364.044 336.673 400.359C317.413 436.675 303.932 480.253 296.228 531.094C289.204 580.182 289.317 621.131 296.568 653.94C304.045 686.749 317.866 711.418 338.032 727.948C358.198 744.227 383.802 752.366 414.844 752.366C435.01 752.366 453.703 749.737 470.923 744.477C488.37 738.967 504.118 731.078 518.166 720.81C532.214 710.541 544.336 698.144 554.532 683.618C564.955 668.841 572.999 652.437 578.664 634.405H747.921C739.538 668.215 725.716 701.901 706.456 735.461C687.423 768.771 663.406 798.95 634.403 825.999C605.4 853.047 571.753 874.711 533.46 890.99C495.168 907.27 452.57 915.409 405.667 915.409C341.544 915.409 286.258 899.506 239.809 867.698C193.586 835.891 160.165 789.809 139.546 729.45C119.153 668.841 115.301 595.46 127.99 509.305C140.452 425.905 165.036 355.654 201.743 298.552C238.676 241.449 283.539 198.247 336.333 168.944C389.353 139.641 445.886 124.99 505.93 124.99C549.434 124.99 588.52 131.502 623.187 144.525C658.081 157.298 687.65 176.082 711.895 200.876C736.139 225.42 754.152 255.6 765.935 291.414C777.943 327.228 782.702 368.177 780.209 414.259Z" fill="#A9C1E4"/>
<path d="M651.3 293.686C650.631 272.71 667.088 255.007 688.057 254.145L730.42 252.403C751.389 251.541 768.93 267.847 769.598 288.823L788.034 867.399L669.735 872.262L651.3 293.686Z" fill="#1A2F4E"/>
<path d="M263.826 270.798C264.563 259.777 274.107 251.21 285.144 251.663L345.492 254.141C366.461 255.002 382.324 272.675 380.923 293.615L342.081 874.252L223.782 869.394L263.826 270.798Z" fill="#1A2F4E"/>
<rect width="70.3482" height="438.565" rx="35.1741" transform="matrix(0.948908 -0.315552 0.476389 0.879234 277.071 273.041)" fill="#1A2F4E"/>
<path d="M718.566 152.078C727.82 134.998 750.266 126.121 768.699 132.251V132.251C787.133 138.381 794.574 157.197 785.32 174.277L538.21 630.349C528.955 647.429 506.51 656.306 488.076 650.176V650.176C469.643 644.046 462.201 625.23 471.456 608.15L718.566 152.078Z" fill="#428CFE"/>
<path d="M794.268 88.4054L808.827 232.204L658.097 162.054L794.268 88.4054Z" fill="#428CFE"/>
</svg>
