<svg width="1049" height="1000" viewBox="0 0 1049 1000" fill="none" xmlns="http://www.w3.org/2000/svg">
<path d="M818.166 414.259H642.1C643.05 394.724 641.268 377.318 636.753 362.041C632.239 346.513 625.111 333.239 615.369 322.219C605.627 310.949 593.509 302.434 579.015 296.673C564.521 290.913 547.651 288.033 528.405 288.033C491.576 288.033 458.192 297.675 428.254 316.96C398.316 336.244 373.248 364.044 353.052 400.359C332.855 436.675 318.718 480.253 310.639 531.094C303.273 580.182 303.392 621.131 310.995 653.94C318.836 686.749 333.33 711.418 354.477 727.947C375.624 744.227 402.474 752.366 435.026 752.366C456.173 752.366 475.775 749.737 493.833 744.477C512.129 738.967 528.643 731.078 543.374 720.81C558.106 710.541 570.818 698.144 581.51 683.618C592.44 668.841 600.875 652.437 606.815 634.405H784.307C775.515 668.215 761.021 701.901 740.825 735.461C720.866 768.771 695.68 798.95 665.266 825.999C634.853 853.047 599.568 874.711 559.413 890.99C519.257 907.269 474.587 915.409 425.403 915.409C358.16 915.409 300.184 899.506 251.475 867.698C203.003 835.891 167.957 789.809 146.334 729.45C124.95 668.841 120.911 595.46 134.217 509.305C147.285 425.905 173.065 355.654 211.557 298.552C250.287 241.449 297.333 198.246 352.695 168.944C408.295 139.641 467.578 124.99 530.543 124.99C576.164 124.99 617.151 131.502 653.505 144.525C690.096 157.298 721.104 176.082 746.527 200.876C771.951 225.42 790.841 255.599 803.196 291.414C815.79 327.228 820.779 368.177 818.166 414.259Z" fill="#A9C1E4"/>
<path d="M682.985 293.684C682.284 272.709 698.716 255.039 719.686 254.217L767.798 252.331C788.769 251.509 806.337 267.846 807.038 288.821L826.371 867.399L702.317 872.262L682.985 293.684Z" fill="#1A2F4E"/>
<path d="M276.661 270.793C277.434 259.775 287.008 251.193 298.045 251.625L364.143 254.213C385.114 255.034 400.924 272.671 399.455 293.606L358.723 874.251L234.669 869.394L276.661 270.793Z" fill="#1A2F4E"/>
<rect width="73.437" height="443.497" rx="36.7185" transform="matrix(0.953219 -0.30228 0.494009 0.869457 290.55 273.041)" fill="#1A2F4E"/>
<path d="M752.955 153.077C762.973 135.445 786.765 126.121 806.095 132.251V132.251C825.426 138.381 832.975 157.644 822.957 175.276L564.96 629.35C554.942 646.981 531.151 656.305 511.82 650.175V650.175C492.49 644.046 484.941 624.783 494.959 607.151L752.955 153.077Z" fill="#428CFE"/>
<path d="M832.909 88.4053L848.175 232.203L690.112 162.053L832.909 88.4053Z" fill="#428CFE"/>
</svg>
