<svg width="500" height="500" viewBox="0 0 500 500" fill="none" xmlns="http://www.w3.org/2000/svg">
<g clip-path="url(#clip0_116_185)">
<path d="M20.8332 125H479.167C484.692 125 489.991 122.805 493.898 118.898C497.805 114.991 500 109.692 500 104.167C500 98.6416 497.805 93.3426 493.898 89.4356C489.991 85.5286 484.692 83.3336 479.167 83.3336H20.8332C15.3078 83.3336 10.0088 85.5286 6.10179 89.4356C2.19478 93.3426 -0.000152588 98.6416 -0.000152588 104.167C-0.000152588 109.692 2.19478 114.991 6.10179 118.898C10.0088 122.805 15.3078 125 20.8332 125V125Z" fill="white"/>
<path d="M479.167 187.5H20.8332C15.3078 187.5 10.0088 189.695 6.10179 193.602C2.19478 197.509 -0.000152588 202.808 -0.000152588 208.333C-0.000152588 213.859 2.19478 219.158 6.10179 223.065C10.0088 226.972 15.3078 229.167 20.8332 229.167H479.167C484.692 229.167 489.991 226.972 493.898 223.065C497.805 219.158 500 213.859 500 208.333C500 202.808 497.805 197.509 493.898 193.602C489.991 189.695 484.692 187.5 479.167 187.5Z" fill="white"/>
<path d="M479.167 395.833H20.8332C15.3078 395.833 10.0088 398.028 6.10179 401.935C2.19478 405.842 -0.000152588 411.141 -0.000152588 416.666C-0.000152588 422.192 2.19478 427.491 6.10179 431.398C10.0088 435.305 15.3078 437.5 20.8332 437.5H479.167C484.692 437.5 489.991 435.305 493.898 431.398C497.805 427.491 500 422.192 500 416.666C500 411.141 497.805 405.842 493.898 401.935C489.991 398.028 484.692 395.833 479.167 395.833Z" fill="white"/>
<path d="M479.167 291.667H20.8332C15.3078 291.667 10.0088 293.862 6.10179 297.769C2.19478 301.676 -0.000152588 306.975 -0.000152588 312.501C-0.000152588 318.026 2.19478 323.325 6.10179 327.232C10.0088 331.139 15.3078 333.334 20.8332 333.334H479.167C484.692 333.334 489.991 331.139 493.898 327.232C497.805 323.325 500 318.026 500 312.501C500 306.975 497.805 301.676 493.898 297.769C489.991 293.862 484.692 291.667 479.167 291.667Z" fill="white"/>
</g>
<defs>
<clipPath id="clip0_116_185">
<rect width="500" height="500" fill="white"/>
</clipPath>
</defs>
</svg>
